<svg id="Layer_1" xmlns="http://www.w3.org/2000/svg" width="566.9" height="566.9" viewBox="0 0 566.9 566.9"><style>.st0{fill:#1c3f94}</style><path class="st0" d="M544.2 198.1c-14.5-25.6-35.1-48.6-61.3-68.2-25.9-19.4-56-34.7-89.5-45.3-34.5-10.9-71-16.5-108.7-16.5-37.6 0-74.2 5.6-108.7 16.5-33.4 10.6-63.5 25.9-89.5 45.3-26.2 19.6-46.8 42.6-61.3 68.2C10.2 225 2.5 253.6 2.5 283s7.7 58.1 22.9 84.9c14.5 25.6 35.1 48.6 61.3 68.2 25.9 19.4 56 34.7 89.5 45.3 34.5 11 71 16.5 108.7 16.5 37.6 0 74.2-5.6 108.7-16.5 33.5-10.6 63.6-25.9 89.5-45.3 26.2-19.6 46.8-42.6 61.3-68.2 15.2-26.9 22.9-55.4 22.9-84.9-.2-29.4-7.9-58-23.1-84.9zm-89 86.5v24.3l-24.6 6.1v-29.4c0-6.6 6.1-8 11.3-8 6 0 13.3 1.2 13.3 7zm64.2.4l-31.2 8.8c-6-16.8-23.8-28.5-43.8-28.5-26.6 0-54.9 17.4-54.9 49.8 0 24.2 17.1 48.6 55.4 48.6 23.8 0 40-11.3 45.8-31.9l.6-2-12.8 5.2-.2.3c-5.9 11.6-16.9 17.7-31.9 17.7-11.2 0-15.7-3.9-15.7-13.4v-13.2l55-14.4 18-4.7-2.1 16.9 33.4-13.5c-8.9 42.8-38.2 82.3-82.7 111.2-46.1 30-105.6 46.5-167.4 46.5-66.3 0-129-18.7-176.4-52.6-46.6-33.1-73.6-77.4-76.5-124.6l25.2-4.1-3 17.2 42.7-8.2-.2 55-13.2-.3v11.5h61c8.4 0 17.1 0 26.8-1.6 32.5-5.5 61.1-35.6 61.1-64.4 0-21.9-18-37.2-43.8-37.2H186c15.1-8.7 25-18.5 29.3-29.4l21.3-4.9V351h-13.4v11h63.9v-11h-14.6V203.1l-2.9.8-51.7 12.3c0-.8 0-1.5-.1-2.3-1.1-16.1-13.4-25.3-33.8-25.3-5.5 0-11.3.7-16.7 2l-83.6 20.9-1.8.5v13.3l15-3.6v55.9L72 283l3-15.9-43 10.3c.1-1.7.1-2.8.1-2.8 3-47.3 30.3-91.7 76.9-124.9 47.3-33.7 109.8-52.3 175.8-52.3 139.5 0 253 83.3 253 185.6 0 4.4-.2 8.9-.6 13.2l-19.7 5.5 1.9-16.7zm-379.2-75.7c3.3-.7 6.6-1.1 9.8-1.1 15 0 25.1 8 25.1 20 0 15.1-15.2 31.4-34.8 37.5l-.1-56.4zm0 69.4c2-.8 4.3-1.6 7.3-2.4 4.2-1 8.2-1.5 11.9-1.5 17.8 0 29.7 10.5 29.7 26.2 0 20-19.2 41-42.8 46.9-2.1.5-4.1.9-6.1 1.2v-70.4z"/><path class="st0" d="M386.3 264.2l-45 11.2v14.3l7.9-2.1v40.9c0 6-9 21.4-19 21.4-1.9 0-3.2-.4-4.1-1.2-2-2.1-1.9-7.7-1.9-13.7l-.1-67v-4l-46.4 11.4v14.3l9.4-2.3v40.9c0 11.2 0 20.1 3.8 26.5 4.2 7.1 12.4 10.3 26.5 10.3 13.6 0 24.8-4.6 31.7-13V364l50.6-2.4v-13l-13.5.7v-85.1z"/></svg>